<svg width="111" height="22" viewBox="0 0 111 22" fill="none" xmlns="http://www.w3.org/2000/svg">
<path fill-rule="evenodd" clip-rule="evenodd" d="M90.3594 6.59723C90.7816 7.24286 90.9197 7.97743 90.9653 8.80324L91.0253 9.90393V17.6007L91.0865 18.7025C91.209 20.502 92.7063 21.8325 94.7523 21.9457L95.989 22V9.90393L96.0503 8.80324C96.1011 7.98667 96.2379 7.23824 96.6667 6.58799C97.1035 5.92103 97.7307 5.36767 98.4852 4.98348C99.2397 4.59928 100.095 4.39777 100.965 4.39918C101.835 4.40058 102.69 4.60485 103.443 4.99148C104.195 5.37811 104.82 5.93348 105.254 6.60185C105.677 7.24748 105.808 7.99591 105.859 8.80324L105.92 9.90046V17.6007L105.982 18.7025C106.109 20.5112 107.595 21.8418 109.647 21.9457L110.884 22V8.80324C110.884 6.46969 109.838 4.23166 107.977 2.58127C106.116 0.930875 103.591 0.00323181 100.958 0.00231305C99.5487 0.000995875 98.1554 0.266231 96.8711 0.780298C95.5868 1.29437 94.441 2.04543 93.5104 2.98331C92.5793 2.0458 91.4335 1.29492 90.1493 0.780697C88.8651 0.266477 87.472 0.000728203 86.0628 0.00115785C84.0013 0.00115785 82.0882 0.555547 80.5036 1.51302C79.5366 0.556701 77.3734 0.00115785 76.1315 0.00115785V22L77.3734 21.9457C79.4506 21.8244 80.9519 20.5297 81.0327 18.7025L81.0991 17.6007V9.90393L81.1604 8.80324C81.2125 7.97281 81.3428 7.24286 81.7663 6.59261C82.2036 5.92607 82.8305 5.37284 83.5844 4.98817C84.3383 4.60351 85.1929 4.40086 86.0628 4.40046C86.9334 4.40063 87.7887 4.60368 88.5428 4.98925C89.2969 5.37482 89.9234 5.92935 90.3594 6.59723V6.59723ZM5.38951 21.9469L6.63142 22H25.247L25.1858 20.9028C25.0177 19.0941 23.5725 17.7728 21.5252 17.655L20.2833 17.6007H9.11524L24.0051 4.39931L23.9439 3.30324C23.8474 1.47606 22.341 0.155925 20.2833 0.0554414L19.0414 0.00577766L0.425781 0.00115785L0.48703 1.10185C0.649925 2.89322 2.11598 4.24223 4.1463 4.34618L5.38951 4.40046H16.5576L1.66769 17.6018L1.72894 18.7025C1.85144 20.5159 3.32792 21.8291 5.38951 21.9457V21.9469ZM71.259 3.22123C72.4116 4.2426 73.326 5.45521 73.9498 6.7898C74.5736 8.1244 74.8947 9.55484 74.8947 10.9994C74.8947 12.444 74.5736 13.8744 73.9498 15.209C73.326 16.5436 72.4116 17.7562 71.259 18.7776C68.9302 20.8399 65.7729 21.9983 62.4809 21.9983C59.1889 21.9983 56.0316 20.8399 53.7028 18.7776C48.8564 14.4823 48.8564 7.51659 53.7028 3.22123C54.8544 2.20021 56.2217 1.39022 57.7265 0.837517C59.2313 0.284816 60.8442 0.000228005 62.4731 2.65159e-06C64.1046 -0.00100129 65.7204 0.283085 67.228 0.836013C68.7355 1.38894 70.1053 2.19986 71.259 3.22239V3.22123ZM67.747 6.33621C69.1429 7.57436 69.9271 9.25311 69.9271 11.0035C69.9271 12.7538 69.1429 14.4326 67.747 15.6707C66.3499 16.908 64.4558 17.6029 62.4809 17.6029C60.506 17.6029 58.6118 16.908 57.2148 15.6707C55.8189 14.4326 55.0347 12.7538 55.0347 11.0035C55.0347 9.25311 55.8189 7.57436 57.2148 6.33621C58.6118 5.09898 60.506 4.404 62.4809 4.404C64.4558 4.404 66.3499 5.09898 67.747 6.33621V6.33621ZM36.4255 2.65159e-06C38.0545 0.000379687 39.6675 0.28515 41.1723 0.838051C42.6771 1.39095 44.0443 2.20115 45.1958 3.22239C50.0435 7.51659 50.0435 14.4834 45.1958 18.7776C42.8671 20.8399 39.7097 21.9983 36.4177 21.9983C33.1257 21.9983 29.9684 20.8399 27.6396 18.7776C22.7932 14.4823 22.7932 7.51659 27.6396 3.22123C28.7912 2.20021 30.1585 1.39022 31.6633 0.837517C33.1681 0.284816 34.781 0.000228005 36.4099 2.65159e-06H36.4255ZM41.6838 6.3339C43.0801 7.5721 43.8645 9.25109 43.8645 11.0017C43.8645 12.7524 43.0801 14.4314 41.6838 15.6696C40.2868 16.9068 38.3926 17.6018 36.4177 17.6018C34.4428 17.6018 32.5487 16.9068 31.1517 15.6696C29.7557 14.4314 28.9715 12.7527 28.9715 11.0023C28.9715 9.25195 29.7557 7.57321 31.1517 6.33505C32.5487 5.09783 34.4428 4.40284 36.4177 4.40284C38.3926 4.40284 40.2868 5.09783 41.6838 6.33505V6.3339Z" fill="#2D8CFF"/>
</svg>
